<svg width="163" height="28" viewBox="0 0 163 28" fill="none" xmlns="http://www.w3.org/2000/svg">
<path fill-rule="evenodd" clip-rule="evenodd" d="M10.5239 9.11303C11.6606 7.86134 12.7097 6.46427 12.9424 4.78369C10.9973 3.54723 5.36411 3.01172 2.19568 7.39368C-1.91184 13.0751 0.494971 21.054 6.25371 24.9385C1.6289 18.0154 6.76534 13.0391 10.5239 9.11303Z" fill="url(#paint0_linear_6321_21225)"/>
<path fill-rule="evenodd" clip-rule="evenodd" d="M11.3552 19.3701C9.67959 19.0319 7.91912 18.8415 6.31599 19.4843C6.19471 21.7516 8.53753 26.7951 13.9982 27.2904C21.0779 27.9322 26.9328 21.9025 27.4894 15.0781C23.6778 22.4602 16.7077 20.5934 11.3552 19.3701Z" fill="url(#paint1_linear_6321_21225)"/>
<path fill-rule="evenodd" clip-rule="evenodd" d="M20.0134 13.5379C20.5519 15.1275 21.2637 16.7156 22.6338 17.753C24.7005 16.7222 27.9905 12.2139 25.6983 7.33692C22.7264 1.01304 14.465 -0.935801 8.14941 2.00477C16.5858 1.54508 18.4195 8.38819 20.0134 13.5379Z" fill="url(#paint2_linear_6321_21225)"/>
<path fill-rule="evenodd" clip-rule="evenodd" d="M45.9388 12.2563H41.6001V18.3025C41.6001 19.0315 42.0965 19.4569 42.8411 19.4569H45.9388V23.437H42.0654C39.2413 23.437 37.4102 21.7357 37.4102 19.0011V12.2563V8.30664V4.07422H41.6001V8.30664H45.9388V12.2563Z" fill="black"/>
<path fill-rule="evenodd" clip-rule="evenodd" d="M127.942 8.30469H132.132V16.3867C132.132 18.331 133.311 19.9109 135.515 19.9109C137.687 19.9109 138.867 18.331 138.867 16.3867V8.30469H143.056V16.4469C143.056 21.0044 140.169 23.8906 135.515 23.8906C130.891 23.8906 127.942 21.0044 127.942 16.4469V8.30469Z" fill="black"/>
<path fill-rule="evenodd" clip-rule="evenodd" d="M146.244 23.4351H150.434V8.30469H146.244V23.4351Z" fill="black"/>
<path fill-rule="evenodd" clip-rule="evenodd" d="M84.0176 23.4225H88.2071V4.07422H84.0176V23.4225Z" fill="black"/>
<path fill-rule="evenodd" clip-rule="evenodd" d="M162.859 12.2563H158.521V18.3025C158.521 19.0315 159.017 19.4569 159.762 19.4569H162.859V23.437H158.986C156.162 23.437 154.331 21.7357 154.331 19.0011V12.2563V8.30664V4.07422H158.521V8.30664H162.859V12.2563Z" fill="black"/>
<path fill-rule="evenodd" clip-rule="evenodd" d="M102.152 18.9294C101.789 19.2929 101.363 19.574 100.876 19.7727C100.388 19.9713 99.8678 20.0703 99.3166 20.0703C98.7661 20.0703 98.2463 19.9713 97.758 19.7727C97.2697 19.574 96.8447 19.2905 96.4823 18.9222C96.1195 18.5538 95.8321 18.1132 95.6192 17.5992C95.4067 17.0862 95.3006 16.514 95.3006 15.884C95.3006 15.264 95.4042 14.6994 95.6121 14.1909C95.82 13.6821 96.1029 13.2459 96.4604 12.8825C96.8179 12.519 97.2407 12.2383 97.729 12.0396C98.2173 11.8409 98.7417 11.7415 99.3021 11.7415C99.8533 11.7415 100.373 11.8409 100.861 12.0396C101.349 12.2383 101.775 12.519 102.137 12.8825C102.5 13.2459 102.84 13.6821 103.053 14.1909C103.107 14.3214 103.154 14.4561 103.195 14.5945V14.6146C103.246 14.7898 103.285 14.9712 103.314 15.1567C103.322 15.2086 103.33 15.2602 103.336 15.3132C103.343 15.3723 103.35 15.4315 103.354 15.4911C103.364 15.6188 103.371 15.7476 103.371 15.8798C103.371 15.8978 103.37 15.9158 103.37 15.9338C103.369 16.0321 103.363 16.1277 103.357 16.2235C103.334 16.5316 103.279 16.8314 103.195 17.1187V17.2115C103.156 17.3468 103.112 17.4787 103.06 17.6068C102.852 18.1253 102.514 18.566 102.152 18.9294ZM103.372 8.30942V9.40119C102.864 9.02181 102.246 8.63308 101.581 8.36204C100.783 8.03735 99.883 7.875 98.8813 7.875C97.636 7.875 96.5131 8.08581 95.511 8.50742C94.5093 8.92869 93.6583 9.50296 92.9578 10.2295C92.2577 10.9568 91.7175 11.807 91.3384 12.7807C90.9594 13.7548 90.7695 14.7943 90.7695 15.8985C90.7695 17.0034 90.9594 18.0426 91.3384 19.0167C91.7175 19.9904 92.2599 20.8388 92.9653 21.5605C93.6703 22.2826 94.5238 22.8541 95.5259 23.2757C96.5276 23.697 97.6459 23.9078 98.8813 23.9078C99.8735 23.9078 100.766 23.7479 101.559 23.428C102.228 23.158 102.853 22.7672 103.372 22.3833V23.4398H107.53V8.30942H103.372Z" fill="black"/>
<path fill-rule="evenodd" clip-rule="evenodd" d="M52.675 14.0846H60.0613C59.5956 12.5051 58.199 11.5629 56.3989 11.5629C54.5681 11.5629 53.1095 12.5653 52.675 14.0846ZM64.3127 17.2747H52.6439C52.8921 18.8241 54.258 20.1309 56.3989 20.2219C57.8266 20.2825 59.2233 19.6445 59.7819 18.6725H64.1578C63.1332 22.0448 60.0613 23.9285 56.3989 23.9285C51.1854 23.9285 48.3613 20.1613 48.3613 15.9078C48.3613 11.4109 51.6818 7.88672 56.43 7.88672C61.5817 7.88672 64.8714 11.9277 64.3127 17.2747Z" fill="black"/>
<path fill-rule="evenodd" clip-rule="evenodd" d="M76.7496 14.4237L71.2822 13.8685C70.8318 13.828 70.487 13.4739 70.487 13.0149C70.487 12.5559 70.8777 12.1574 71.4339 12.1574L80.2783 12.1557V8.29297H71.4491C68.3917 8.29297 66.3516 10.255 66.3516 12.8809C66.3516 17.0254 70.3456 17.4249 71.4728 17.5242L76.7836 18.014C77.2163 18.0531 77.5409 18.429 77.4978 18.8628C77.4575 19.266 77.083 19.5596 76.6694 19.5596H67.4805V23.423H76.5396C79.6041 23.423 81.6372 21.461 81.6372 18.8354C81.6372 14.9346 78.2159 14.5552 76.7496 14.4237Z" fill="black"/>
<path fill-rule="evenodd" clip-rule="evenodd" d="M120.975 14.4237L115.508 13.8685C115.057 13.828 114.712 13.4739 114.712 13.0149C114.712 12.5559 115.103 12.1574 115.659 12.1574L124.504 12.1557V8.29297H115.675C112.617 8.29297 110.577 10.255 110.577 12.8809C110.577 17.0254 114.571 17.4249 115.698 17.5242L121.009 18.014C121.442 18.0531 121.767 18.429 121.723 18.8628C121.683 19.266 121.309 19.5596 120.895 19.5596H111.706V23.423H120.765C123.829 23.423 125.863 21.461 125.863 18.8354C125.863 14.9346 122.441 14.5552 120.975 14.4237Z" fill="black"/>
<defs>
<linearGradient id="paint0_linear_6321_21225" x1="6.5415" y1="3.90625" x2="6.5415" y2="24.9385" gradientUnits="userSpaceOnUse">
<stop stop-color="#22C6FC"/>
<stop offset="1" stop-color="#22C6FC"/>
</linearGradient>
<linearGradient id="paint1_linear_6321_21225" x1="28.8975" y1="19.9209" x2="7.39746" y2="19.9209" gradientUnits="userSpaceOnUse">
<stop stop-color="#B375FC"/>
<stop offset="1" stop-color="#AE6CFC"/>
</linearGradient>
<linearGradient id="paint2_linear_6321_21225" x1="17.3138" y1="0.664062" x2="17.3138" y2="17.753" gradientUnits="userSpaceOnUse">
<stop stop-color="#3B83FB"/>
<stop offset="1" stop-color="#3B83FB"/>
</linearGradient>
</defs>
</svg>
